# xmcd
#
# Track frame offsets:
#	150
#	22756
#	41067
#	62027
#	82192
#	99124
#	118509
#	136642
#	151548
#	173439
#
# Disc length: 2637 seconds
#
# Revision: 1
# Processed by: cddbd v1.5.1PL0 Copyright (c) Steve Scherf et al.
# Submitted via: audiograbber 1.83.01
#
DISCID=650a4b0a
DTITLE=Eva Cassidy - Songbird
DYEAR=1900
DGENRE=
TTITLE0=Fields of Gold
TTITLE1=Wade In The Water
TTITLE2=Autumn Leaves
TTITLE3=Wayfaring Stranger
TTITLE4=Songbird
TTITLE5=Time Is A Healer
TTITLE6=I Know You By Heart
TTITLE7=People Get Ready
TTITLE8=Oh Had I A Golden Thread
TTITLE9=Over The Rainbow
EXTD=
EXTT0=
EXTT1=
EXTT2=
EXTT3=
EXTT4=
EXTT5=
EXTT6=
EXTT7=
EXTT8=
EXTT9=
PLAYORDER=
